@startuml
skin rose

'[brief] State2 has an event to transit to State1 but has no event and no guard for State3.
'[brief] Therefore the state machine is not determinist.


[*] -> A
A -> B : [ guard1() ]
A --> C : [ guard2() ]
A --> D

'[code] bool guard1() { return true; }
'[code] bool guard2() { return true; }

@enduml
